<svg id="flow_3-43" data-name="flow 3-43"
  xmlns="http://www.w3.org/2000/svg" width="40.329" height="49.451" viewBox="0 0 40.329 49.451">
  <path id="Path_1312" data-name="Path 1312" d="M38.33,114.207a9.88,9.88,0,0,1-1.692-.759,3.677,3.677,0,0,1-1.588-3.195q-.014-16.126,0-32.257a3.679,3.679,0,0,1,3.078-3.746v31.236a5.468,5.468,0,0,0,3.8,5.452,6.769,6.769,0,0,0,1.992.275q10.627.031,21.25.013h.643A3.315,3.315,0,0,1,64.4,113.41a11.786,11.786,0,0,1-1.734.8Z" transform="translate(-35.042 -64.756)" fill="#f1f1f3"/>
  <path id="Path_1313" data-name="Path 1313" d="M107.776,21.352v1.256c.016,2.042-.016,4.088.07,6.129a4.289,4.289,0,0,0,3.936,3.905c2.057.084,4.119.052,6.178.07h.619c.011.214.025.384.025.555v24a3.849,3.849,0,0,1-2.829,4.047,4.632,4.632,0,0,1-1.24.138q-11.373.011-22.747,0A3.813,3.813,0,0,1,87.73,57.4V25.388a3.828,3.828,0,0,1,4.031-4.038h15.55ZM103.987,39.5h1.949c.867,0,1.21-.336,1.213-1.192v-2.9c0-.808-.305-1.118-1.1-1.12H100.3c-.8,0-1.113.307-1.12,1.1v2.8c0,1,.309,1.3,1.294,1.3h1.755v1.913H97.208c-.8,0-1.077.273-1.077,1.077v3.073c-.359,0-.625-.022-.9,0a.772.772,0,0,0-.808.84q-.025,1.472,0,2.945a.8.8,0,0,0,.845.865q1.615.038,3.231,0a.808.808,0,0,0,.874-.842c.029-1.012.022-2.026,0-3.04a.739.739,0,0,0-.73-.757c-.267-.032-.538-.043-.815-.065V43.133h4.377v2.412H101.7c-.777.029-1.025.285-1.028,1.077v2.7a.814.814,0,0,0,.861.9q1.615.034,3.231,0a.8.8,0,0,0,.858-.847c.018-1,.011-2,0-2.994a.744.744,0,0,0-.732-.8c-.3-.036-.6-.041-.91-.059V43.133h4.487v2.412h-.508c-.772.029-1.043.3-1.048,1.062,0,.885-.013,1.77,0,2.654.011.6.3.937.867.951q1.64.038,3.283,0a.781.781,0,0,0,.822-.829c.018-1.012.013-2.028,0-3.04a.722.722,0,0,0-.718-.768c-.3-.036-.6-.039-.96-.061v-.538c0-.836.011-1.673,0-2.513-.013-.747-.323-1.046-1.077-1.048h-5.174Zm-.774,15.167h-8.4a2.265,2.265,0,0,0-.574.041.777.777,0,0,0-.63.851.756.756,0,0,0,.671.763,3.063,3.063,0,0,0,.528.043H111.5a3.611,3.611,0,0,0,.574-.047.775.775,0,0,0,.655-.682c.109-.553-.325-.966-1.027-.966Q107.453,54.67,103.213,54.67Z" transform="translate(-78.274 -21.35)" fill="#f1f1f3"/>
  <path id="Path_1314" data-name="Path 1314" d="M64.586,48.28V79.44a5.514,5.514,0,0,0,3.207,5.3,5.6,5.6,0,0,0,2.622.529H92.4a3.769,3.769,0,0,1-1.942,2.513,4.448,4.448,0,0,1-2.154.452H65.8a3.891,3.891,0,0,1-4.193-4.182V52.334A4.042,4.042,0,0,1,62.825,49.2,3.4,3.4,0,0,1,64.586,48.28Z" transform="translate(-56.842 -43.447)" fill="#f1f1f3"/>
  <path id="Path_1315" data-name="Path 1315" d="M208.869,28.61l7.985,8.326c-.23.013-.359.027-.5.029h-4.442a2.817,2.817,0,0,1-3.051-3.037C208.867,32.2,208.869,30.484,208.869,28.61Z" transform="translate(-177.664 -27.307)" fill="#f1f1f3"/>
  <path id="Path_1316" data-name="Path 1316" d="M165.667,103.21v1.721H161.16V103.21Z" transform="translate(-138.525 -88.518)" fill="#e3bc97"/>
  <path id="Path_1317" data-name="Path 1317" d="M169.5,165.72h1.526v1.219H169.5Z" transform="translate(-145.368 -139.809)" fill="#e3bc97"/>
  <path id="Path_1318" data-name="Path 1318" d="M204.36,165.76h1.551v1.2h-1.543Z" transform="translate(-173.972 -139.842)" fill="#e3bc97"/>
  <path id="Path_1319" data-name="Path 1319" d="M136.168,167H134.66v-1.22h1.508Z" transform="translate(-116.781 -139.858)" fill="#e3bc97"/>
</svg>
