<svg xmlns="http://www.w3.org/2000/svg" xmlns:xlink="http://www.w3.org/1999/xlink" width="882.793" height="638.601" viewBox="0 0 882.793 638.601">
  <defs>
    <radialGradient id="radial-gradient" cx="0.5" cy="0.5" r="0.381" gradientUnits="objectBoundingBox">
      <stop offset="0.57" stop-color="#130c0e"/>
      <stop offset="0.8" stop-color="#130c0e"/>
      <stop offset="1" stop-color="#130c0e"/>
    </radialGradient>
    <linearGradient id="linear-gradient" x1="-0.003" y1="0.499" x2="0.997" y2="0.499" gradientUnits="objectBoundingBox">
      <stop offset="0" stop-color="#231f20"/>
      <stop offset="0.09" stop-color="#231f20"/>
      <stop offset="1" stop-color="#231f20"/>
    </linearGradient>
    <radialGradient id="radial-gradient-2" cx="0.501" cy="0.5" r="0.42" xlink:href="#radial-gradient"/>
    <radialGradient id="radial-gradient-3" cx="0.5" cy="0.5" r="0.459" xlink:href="#radial-gradient"/>
    <radialGradient id="radial-gradient-4" cx="0.5" cy="0.5" r="0.527" xlink:href="#radial-gradient"/>
    <linearGradient id="linear-gradient-2" y1="0.499" x2="1.001" y2="0.499" gradientUnits="objectBoundingBox">
      <stop offset="0" stop-color="#603813"/>
      <stop offset="1" stop-color="#c3996b"/>
    </linearGradient>
    <linearGradient id="linear-gradient-3" x1="0" y1="0.499" x2="0.999" y2="0.499" xlink:href="#linear-gradient-2"/>
    <linearGradient id="linear-gradient-4" x1="0" y1="0.5" x2="1" y2="0.5" xlink:href="#linear-gradient-2"/>
  </defs>
  <g id="illustration" transform="translate(-146.649 -315.05)">
    <g id="Circle_Landing" data-name="Circle Landing" transform="translate(146.649 352.743)">
      <path id="Path_1505" data-name="Path 1505" d="M651.048,544.812c-45.361-26.186-118.7-26.186-163.776,0l-.626.371c-29.018,17.118-38.9,41.045-29.7,62.84,4.889,11.6,15.177,22.6,30.863,31.659,45.372,26.2,118.722,26.2,163.8,0s44.831-68.673-.541-94.87Z" transform="translate(-128.05 -340.013)" fill="#fff"/>
      <path id="Path_1506" data-name="Path 1506" d="M673.712,533.519c-57.038-32.878-149.543-32.878-206.168,0-1.517.891-3,1.782-4.433,2.694l2.9,1.156c1.294-.827,2.63-1.623,4-2.429,55.3-32.136,145.6-32.136,201.257,0s55.967,84.444.668,116.58-145.608,32.146-201.278,0c-20.427-11.794-33.408-26.3-38.9-41.533l-3.5.127c5.579,15.707,18.91,30.672,39.952,42.826,57.038,32.878,149.543,32.878,206.189,0s56.349-86.491-.679-119.422Z" transform="translate(-129.588 -341.001)" fill="#fff"/>
      <path id="Path_1507" data-name="Path 1507" d="M695.975,522.523c-68.45-39.517-179.483-39.517-247.477,0q-4.179,2.429-8.039,5l7.721,3.055q3.309-2.121,6.894-4.242c64.4-37.428,169.546-37.428,234.39,0s65.184,98.338.785,135.755-169.567,37.428-234.39,0c-24.669-14.233-39.984-31.828-45.976-50.293l-9.312.339c6.194,19.685,22.431,38.531,48.723,53.708,68.461,39.518,179.494,39.518,247.5,0s67.644-103.831-.817-143.359Z" transform="translate(-131.265 -341.969)" fill="#fff"/>
      <path id="Path_1508" data-name="Path 1508" d="M741.675,500.022c-91.826-53.029-240.753-53.029-331.964,0s-90.765,139.3,1.061,192.316c38.648,22.272,87.4,35.243,137.707,38.764L548,719.585c-45.1-3.51-88.665-15.283-123.357-35.307-84.126-48.575-84.571-127.61-.976-176.2s220.04-48.575,304.166,0c54.5,31.467,73.891,75.715,58.067,116.187l18.656,3.9c18.232-44.545-2.758-93.459-62.85-128.151Z" transform="translate(-134.837 -343.946)" fill="#fff"/>
      <path id="Path_1509" data-name="Path 1509" d="M397.136,701.983C296.921,644.118,296.38,549.969,395.948,492.1s262.124-57.866,362.339,0,100.756,152.014,1.177,209.88S497.361,759.849,397.136,701.983ZM761.554,490.205C712.13,461.675,646.533,446,576.852,446S441.765,461.718,392.66,490.258s-76.033,66.478-75.8,106.822,27.575,78.314,77,106.844,115.031,44.248,184.7,44.248,135.108-15.75,184.192-44.29,76.065-66.488,75.8-106.833S810.977,518.746,761.554,490.205Z" transform="translate(-136.337 -344.809)" fill="#fff"/>
      <path id="Path_1510" data-name="Path 1510" d="M915.107,532.2l-7.986,1.379C942.65,591.487,930.74,657,871.3,709.637l6.671,2.747c37.545-33.037,57.59-71.759,57.357-112.295-.138-23.471-7.064-46.348-20.225-67.878Zm-96.3-83.352C753.675,414.656,670.111,396,581.8,396c-94.127,0-182.516,21.212-248.856,59.785s-102.718,89.758-102.4,144.293,37.248,105.783,104.022,144.335S489.96,804.2,584.087,804.2c56.37,0,110.651-7.615,159.4-22.007l-4.062-4.168c-128.946,37.8-290.972,25.486-399.152-36.93-134.695-77.762-135.395-204.28-1.58-282.042,129.752-75.4,339.038-77.688,474.4-6.841l5.727-3.33Z" transform="translate(-141.566 -347.839)" fill="#fff"/>
      <path id="Path_1511" data-name="Path 1511" d="M870.957,436.14c-38.722-22.357-83.85-39.666-134.079-51.449a683.387,683.387,0,0,0-304.388,0c-50.1,11.783-95.039,29.1-133.507,51.46s-68.164,48.437-88.379,77.5c-19.5,28.063-29.3,57.728-29.124,88.156s10.3,60.093,30.11,88.145q1.92,2.736,3.967,5.43l7.817-1.5c-63.8-84.041-36.781-185.751,81.379-254.414,154.018-89.514,405.462-89.514,560.488,0s155.906,235.153,1.835,324.667c-95.835,55.7-229.394,76.734-353.981,63.126l-1.973,4.677a690.425,690.425,0,0,0,76.108,4.136,664.882,664.882,0,0,0,152.1-17.15c50.113-11.783,95.018-29.092,133.507-51.46s68.217-48.437,88.4-77.5c19.494-28.074,29.283-57.728,29.113-88.156s-10.3-60.082-30.11-88.145c-20.5-29.06-50.548-55.151-89.28-77.508Z" transform="translate(-144.539 -349.564)" fill="#fff"/>
      <path id="Path_1512" data-name="Path 1512" d="M899.062,422.084C856.8,397.691,807.576,378.791,752.7,365.937a702.942,702.942,0,0,0-94.392-15.347l.583,1.527c87.361,8.357,171.147,32,238.537,70.9,171.73,99.144,172.632,260.47,2.036,359.613s-449.116,99.154-620.857.053S105.987,522.214,276.593,423.07a471.611,471.611,0,0,1,65.756-31.393l-.552-1.464a475.139,475.139,0,0,0-66.817,31.913c-42,24.393-74.464,52.849-96.513,84.561-21.212,30.63-31.945,63-31.818,96.2s11.253,65.565,32.878,96.185c22.368,31.712,55.151,60.167,97.4,84.571s91.5,43.293,146.361,56.148a728.785,728.785,0,0,0,166.173,18.719,725.94,725.94,0,0,0,165.95-18.719c54.673-12.854,103.694-31.754,145.693-56.158s74.432-52.849,96.513-84.561c21.212-30.63,31.956-63,31.818-96.185s-11.242-65.565-32.878-96.2c-22.378-31.712-55.151-60.167-97.425-84.571Z" transform="translate(-146.649 -350.59)" fill="#fff"/>
    </g>
    <g id="Group_912" data-name="Group 912" transform="translate(175.352 455.763)" opacity="0.1">
      <path id="Path_1513" data-name="Path 1513" d="M765.157,485.551c-21.339-12.324-46.2-21.869-73.912-28.371a376.764,376.764,0,0,0-167.753,0c-27.628,6.5-52.382,16.036-73.584,28.36s-37.6,26.706-48.734,42.72c-10.744,15.474-16.153,31.818-16.057,48.585s5.685,33.112,16.6,48.586c8.729,12.377,20.618,23.757,35.392,33.939l-29.612,17.2-2.683-1.538a15.633,15.633,0,0,0-14.159,0L176.605,799.474c-3.882,2.259-3.85,5.95.053,8.2l34.31,19.812a15.633,15.633,0,0,0,14.159,0L439.164,703.1c3.882-2.248,3.861-5.95,0-8.2l-2.683-1.549,29.612-17.213a285.453,285.453,0,0,0,58.778,20.384,376.8,376.8,0,0,0,167.764,0c27.575-6.5,52.382-16.047,73.594-28.371s37.587-26.695,48.723-42.71c10.733-15.485,16.142-31.818,16.047-48.6s-5.685-33.111-16.6-48.585c-11.306-16.025-27.862-30.4-49.211-42.72Z" transform="translate(-173.712 -447.725)"/>
    </g>
    <path id="Path_1514" data-name="Path 1514" d="M444.169,512.907c-33.536,19.494-50.325,45.043-50.4,70.646l.127-43.887c.074-25.592,16.863-51.152,50.4-70.635,31.149-18.1,71.409-27.851,112.422-29.24l-.127,43.876C515.578,485.056,475.329,494.8,444.169,512.907Z" transform="translate(14.972 7.558)" fill="#b7b7b7"/>
    <path id="Path_1515" data-name="Path 1515" d="M547.28,483.676l.127-43.876c47.811-1.623,96.651,8.124,133.231,29.251,34.193,19.737,51.269,45.711,51.195,71.643l-.127,43.877c.074-25.931-16.969-51.905-51.195-71.643C643.931,491.8,595.1,482.054,547.28,483.676Z" transform="translate(24.273 7.548)" fill="#b7b7b7"/>
    <path id="Path_1516" data-name="Path 1516" d="M749.41,535l-.127,43.876c0,15.029-4.953,29.7-14.583,43.558l.127-43.876C744.457,564.7,749.368,550.029,749.41,535Z" transform="translate(35.628 13.326)" fill="#b7b7b7"/>
    <path id="Path_1517" data-name="Path 1517" d="M741.133,534.968l-.127,43.876c-.074,25.6-16.853,51.163-50.388,70.646-67.506,39.242-177.712,39.242-245.643,0-34.2-19.748-51.279-45.711-51.205-71.643l.127-43.887c-.074,25.931,16.969,51.905,51.195,71.653,67.941,39.242,178.179,39.242,245.653,0C724.27,586.12,741.059,560.57,741.133,534.968Z" transform="translate(14.972 13.263)" fill="#39c3f2" opacity="0.3"/>
    <g id="Group_913" data-name="Group 913" transform="translate(408.847 466.569)" opacity="0.5">
      <path id="Path_1518" data-name="Path 1518" d="M689.912,487.352c67.941,39.242,68.3,103.047.806,142.278s-177.712,39.242-245.653,0-68.312-103.068-.8-142.3S622.034,448.11,689.912,487.352Z" transform="translate(-393.869 -457.914)" fill="#66acdf"/>
    </g>
    <path id="Path_1519" data-name="Path 1519" d="M366.492,577.8l.117-43.876v.552c.085,15.241,5.154,30.089,15.082,44.152,7.933,11.242,18.719,21.583,32.146,30.874q5.95,4.126,12.579,7.944t13.8,7.255a260.019,260.019,0,0,0,53.348,18.55,342,342,0,0,0,152.406,0c25.1-5.9,47.6-14.573,66.87-25.772S747,593.228,757.106,578.666l-.127,43.877c-10.107,14.562-25.009,27.575-44.269,38.807s-41.766,19.875-66.87,25.783a342.158,342.158,0,0,1-152.427,0,259.579,259.579,0,0,1-53.4-18.507q-7.106-3.436-13.788-7.255a148.052,148.052,0,0,1-12.526-7.986c-13.438-9.291-24.213-19.642-32.157-30.884-9.917-14.063-14.986-28.912-15.082-44.142Z" transform="translate(13.318 13.261)" fill="#b7b7b7"/>
    <path id="Path_1520" data-name="Path 1520" d="M392.487,646.516l-.1,34.183-20.5-11.836.1-34.183Z" transform="translate(13.647 19.365)" fill="#4d4c4d"/>
    <path id="Path_1521" data-name="Path 1521" d="M432.774,623.2l-.1,34.183L391.22,681.394l.1-34.183Z" transform="translate(14.818 18.67)" fill="#3a3a3b"/>
    <path id="Path_1522" data-name="Path 1522" d="M433.938,623.868,392.48,647.89,372,636.054,413.437,612q4.635,3.182,9.789,6.183T433.938,623.868Z" transform="translate(13.653 17.991)" fill="#4d4c4d"/>
    <path id="Path_1523" data-name="Path 1523" d="M757.126,585.294c-10.107,14.562-25.009,27.575-44.269,38.807s-41.766,19.875-66.9,25.815a341.994,341.994,0,0,1-152.438,0,260.011,260.011,0,0,1-53.316-18.55q-7.106-3.436-13.735-7.254t-12.579-7.944c-13.427-9.291-24.213-19.631-32.146-30.874-9.927-14.063-15-28.912-15.082-44.152s4.815-30.078,14.583-44.142c10.118-14.562,25.009-27.575,44.28-38.818s41.766-19.865,66.817-25.772a342.41,342.41,0,0,1,152.438,0c25.168,5.9,47.726,14.572,67.156,25.772s34.427,24.256,44.7,38.807c9.916,14.074,15,28.922,15.082,44.152S766.862,571.231,757.126,585.294Zm-310.391,27c67.941,39.242,178.179,39.242,245.653,0s67.135-103.057-.806-142.278-178.179-39.242-245.643,0-67.156,103.068.8,142.3Z" transform="translate(13.33 6.59)" fill="#eaeae9"/>
    <g id="Group_914" data-name="Group 914" transform="translate(168.859 645.935)">
      <path id="Path_1524" data-name="Path 1524" d="M397.758,649l-.127,43.877c0,1.347-.87,2.683-2.63,3.7l.127-43.877C396.877,651.673,397.758,650.336,397.758,649Z" transform="translate(-153.812 -625.702)" fill="#e7af2a"/>
      <path id="Path_1525" data-name="Path 1525" d="M167.59,782.416l.117-43.876c0,1.358.891,2.715,2.683,3.755l-.127,43.876C168.47,785.132,167.579,783.774,167.59,782.416Z" transform="translate(-167.59 -620.277)" fill="#f6ba2d"/>
      <path id="Path_1526" data-name="Path 1526" d="M406.237,652.48l-.127,43.876L211.63,809.383l.127-43.887Z" transform="translate(-164.922 -625.491)" fill="#e7af2a"/>
      <path id="Path_1527" data-name="Path 1527" d="M201.408,760.068l-.127,43.887-31.171-18,.127-43.876Z" transform="translate(-167.437 -620.062)" fill="#f6ba2d"/>
      <path id="Path_1528" data-name="Path 1528" d="M212.492,759l-.127,43.887a14.244,14.244,0,0,1-12.865,0L199.627,759a14.18,14.18,0,0,0,12.865,0Z" transform="translate(-165.657 -619.037)" fill="#f6ba2d"/>
      <path id="Path_1529" data-name="Path 1529" d="M408.856,646.566c3.553,2.047,3.564,5.409,0,7.424L214.418,767a14.18,14.18,0,0,1-12.865,0l-31.171-18.03c-3.553-2.058-3.574-5.409,0-7.424L364.82,628.568a14.244,14.244,0,0,1,12.865,0l2.439,1.411,26.3,15.188Z" transform="translate(-167.583 -627.033)" fill="#ffc43b"/>
    </g>
    <g id="Group_915" data-name="Group 915" transform="translate(478.455 485.242)" opacity="0.1">
      <path id="Path_1530" data-name="Path 1530" d="M459.5,559.635,605.182,475.52l67.093,38.987L526.593,598.622,459.5,559.635Z" transform="translate(-459.5 -475.52)"/>
    </g>
    <g id="books" transform="translate(561.69 348.395)">
      <path id="Path_1531" data-name="Path 1531" d="M552.161,347.48l89.471,51.7V527.207L552.14,475.493Z" transform="translate(-537.122 -346.43)" fill="#f0656c"/>
      <path id="Path_1532" data-name="Path 1532" d="M552.14,347.48l89.492,51.714V527.228L552.14,475.514Z" transform="translate(-537.122 -346.43)" fill="#f1686e"/>
      <path id="Path_1533" data-name="Path 1533" d="M552.16,347.54l1.835-1.05L643.487,398.2l-1.856,1.039Z" transform="translate(-537.121 -346.49)" fill="#f27b80"/>
      <path id="Path_1534" data-name="Path 1534" d="M537.98,355.67l89.492,51.714V535.408L537.98,483.693Z" transform="translate(-537.98 -345.934)" fill="#f0656c"/>
      <path id="Path_1535" data-name="Path 1535" d="M539.74,354.69,629.232,406.4V534.428L539.74,482.713Z" transform="translate(-537.873 -345.993)" fill="#f0656c"/>
      <path id="Path_1536" data-name="Path 1536" d="M537.98,355.729l1.867-1.039L629.339,406.4l-1.867,1.039Z" transform="translate(-537.98 -345.993)" fill="#f27b80"/>
      <path id="Path_1537" data-name="Path 1537" d="M622.36,404.987l16.874-9.747V523.316a27.427,27.427,0,0,1-6.151,5.547,27.87,27.87,0,0,1-10.722,4.242Z" transform="translate(-532.868 -343.536)" fill="#f0595d"/>
      <path id="Path_1538" data-name="Path 1538" d="M547.67,359.617s9.3.615,10.818-6.247l80.742,46.581-11.179,6.13Z" transform="translate(-537.393 -346.073)" fill="#fff"/>
      <path id="Path_1539" data-name="Path 1539" d="M622.454,405.047a28.137,28.137,0,0,0,16.874-9.747l-1.856-1.061a47.309,47.309,0,0,1-7.36,5.515A47.913,47.913,0,0,1,620.8,404.1Z" transform="translate(-532.962 -343.597)" fill="#f27b80"/>
    </g>
    <g id="books-2" data-name="books" transform="translate(541.454 356.402)">
      <path id="Path_1540" data-name="Path 1540" d="M533.082,355.04l89.461,51.7V534.767L533.05,483.053Z" transform="translate(-518.043 -353.979)" fill="#66bd63"/>
      <path id="Path_1541" data-name="Path 1541" d="M533.05,355.04l89.492,51.714V534.788L533.05,483.074Z" transform="translate(-518.043 -353.979)" fill="#57ba66"/>
      <path id="Path_1542" data-name="Path 1542" d="M533.08,355.1l1.835-1.061,89.492,51.714-1.867,1.05Z" transform="translate(-518.041 -354.04)" fill="#74bf56"/>
      <path id="Path_1543" data-name="Path 1543" d="M518.9,363.23l89.492,51.714V542.968L518.9,491.253Z" transform="translate(-518.9 -353.483)" fill="#66bd63"/>
      <path id="Path_1544" data-name="Path 1544" d="M520.66,362.25l89.492,51.7V541.988L520.66,490.273Z" transform="translate(-518.793 -353.543)" fill="#66bd63"/>
      <path id="Path_1545" data-name="Path 1545" d="M518.9,363.289l1.867-1.039,89.492,51.7L608.392,415Z" transform="translate(-518.9 -353.543)" fill="#74bf56"/>
      <path id="Path_1546" data-name="Path 1546" d="M603.28,412.557l16.874-9.747V530.833a27.575,27.575,0,0,1-16.874,9.736Z" transform="translate(-513.788 -351.085)" fill="#46b765"/>
      <path id="Path_1547" data-name="Path 1547" d="M528.58,367.177s9.3.615,10.829-6.247l80.753,46.581-11.179,6.13Z" transform="translate(-518.314 -353.623)" fill="#fff"/>
      <path id="Path_1548" data-name="Path 1548" d="M603.375,412.617a28.137,28.137,0,0,0,16.874-9.747l-1.867-1.061a47.321,47.321,0,0,1-7.35,5.515,47.917,47.917,0,0,1-9.312,4.348Z" transform="translate(-513.882 -351.146)" fill="#74bf56"/>
    </g>
    <g id="books-3" data-name="books" transform="translate(500.727 315.05)">
      <path id="Path_1549" data-name="Path 1549" d="M494.681,316.05l109.644,63.306V554.693L494.66,491.376Z" transform="translate(-479.642 -314.989)" fill="#f9a236"/>
      <path id="Path_1550" data-name="Path 1550" d="M494.68,316.05l109.675,63.317V554.714L494.68,491.4Z" transform="translate(-479.641 -314.989)" fill="#f9a237"/>
      <path id="Path_1551" data-name="Path 1551" d="M494.68,316.111l1.835-1.061L606.19,378.367l-1.867,1.05Z" transform="translate(-479.641 -315.05)" fill="#f9a339"/>
      <path id="Path_1552" data-name="Path 1552" d="M480.5,324.24l109.675,63.317V562.893L480.5,499.576Z" transform="translate(-480.5 -314.493)" fill="#f9a236"/>
      <path id="Path_1553" data-name="Path 1553" d="M482.26,323.25l109.665,63.317V561.914L482.26,498.6Z" transform="translate(-480.393 -314.553)" fill="#f9a236"/>
      <path id="Path_1554" data-name="Path 1554" d="M480.5,324.3l1.867-1.05,109.665,63.317-1.856,1.05Z" transform="translate(-480.5 -314.553)" fill="#f9a339"/>
      <path id="Path_1555" data-name="Path 1555" d="M583.91,384.5l16.874-9.747V550.1a28.177,28.177,0,0,1-6.151,5.547,27.873,27.873,0,0,1-10.723,4.242Z" transform="translate(-474.235 -311.433)" fill="#f68f3b"/>
      <path id="Path_1556" data-name="Path 1556" d="M490.19,328.187s9.3.615,10.818-6.247l100.926,58.184-11.189,6.13Z" transform="translate(-479.913 -314.633)" fill="#fff"/>
      <path id="Path_1557" data-name="Path 1557" d="M584.005,384.557a28.137,28.137,0,0,0,16.874-9.747l-1.867-1.061a46.973,46.973,0,0,1-7.36,5.515,47.63,47.63,0,0,1-9.312,4.348Z" transform="translate(-474.33 -311.494)" fill="#f9a339"/>
    </g>
    <g id="books-4" data-name="books" transform="translate(512.807 424.683)">
      <path id="Path_1558" data-name="Path 1558" d="M514.731,418.99l62.85,36.293V555.806L514.71,519.5Z" transform="translate(-490.507 -418.385)" fill="#57b6e6"/>
      <path id="Path_1559" data-name="Path 1559" d="M514.73,419.025l1.05-.6,62.872,36.3-1.071.594Z" transform="translate(-490.506 -418.42)" fill="#66c2ed"/>
      <path id="Path_1560" data-name="Path 1560" d="M514.73,418.99l63,36.463.923,99.748L515.78,518.908Z" transform="translate(-490.506 -418.385)" fill="#55b4e5"/>
      <path id="Path_1561" data-name="Path 1561" d="M491.89,432.16l62.872,36.293V568.976l-62.872-36.3Z" transform="translate(-491.89 -417.588)" fill="#57b6e6"/>
      <path id="Path_1562" data-name="Path 1562" d="M492.9,431.59l62.872,36.3V568.416l-62.872-36.3Z" transform="translate(-491.829 -417.622)" fill="#57b6e6"/>
      <path id="Path_1563" data-name="Path 1563" d="M491.89,432.195l1.071-.6,62.872,36.3-1.071.594Z" transform="translate(-491.89 -417.622)" fill="#66c2ed"/>
      <path id="Path_1564" data-name="Path 1564" d="M551.17,467.212l25.274-14.562V553.162a58.714,58.714,0,0,1-25.274,14.573Z" transform="translate(-488.298 -416.346)" fill="#56b2e4"/>
      <path id="Path_1565" data-name="Path 1565" d="M497.45,435.012s13.936-5.176,20.151-13.872l60.3,34.458-22.8,12.727Z" transform="translate(-491.553 -418.255)" fill="#fff"/>
      <path id="Path_1566" data-name="Path 1566" d="M550.07,466.583A89.513,89.513,0,0,0,575.333,452l1.177.689a83.958,83.958,0,0,1-10.245,7.36,82.723,82.723,0,0,1-15.028,7.2Z" transform="translate(-488.365 -416.385)" fill="#66c2ed"/>
    </g>
    <g id="books-5" data-name="books" transform="translate(466.905 400.714)">
      <path id="Path_1567" data-name="Path 1567" d="M462.792,396.82l89.461,51.693V576.536L462.76,524.822Z" transform="translate(-447.753 -395.759)" fill="#a38fc3"/>
      <path id="Path_1568" data-name="Path 1568" d="M462.76,396.82l89.492,51.714V576.558L462.76,524.844Z" transform="translate(-447.753 -395.759)" fill="#9f8ac0"/>
      <path id="Path_1569" data-name="Path 1569" d="M462.79,396.881l1.835-1.061,89.492,51.714-1.867,1.039Z" transform="translate(-447.751 -395.82)" fill="#bda8d0"/>
      <path id="Path_1570" data-name="Path 1570" d="M448.61,405,538.1,456.714V584.748L448.61,533.034Z" transform="translate(-448.61 -395.264)" fill="#a38fc3"/>
      <path id="Path_1571" data-name="Path 1571" d="M450.36,404.02l89.492,51.714V583.758L450.36,532.044Z" transform="translate(-448.504 -395.323)" fill="#a38fc3"/>
      <path id="Path_1572" data-name="Path 1572" d="M448.61,405.059l1.856-1.039,89.492,51.714-1.856,1.039Z" transform="translate(-448.61 -395.323)" fill="#bda8d0"/>
      <path id="Path_1573" data-name="Path 1573" d="M533,454.316l16.874-9.736V572.6A27.574,27.574,0,0,1,533,582.35Z" transform="translate(-443.497 -392.866)" fill="#8e78b5"/>
      <path id="Path_1574" data-name="Path 1574" d="M458.29,408.957s9.3.6,10.818-6.247l80.753,46.57-11.179,6.13Z" transform="translate(-448.024 -395.403)" fill="#fff"/>
      <path id="Path_1575" data-name="Path 1575" d="M533.1,454.377a28.052,28.052,0,0,0,16.874-9.736L548.1,443.58a47.312,47.312,0,0,1-16.672,9.863Z" transform="translate(-443.592 -392.926)" fill="#bda8d0"/>
    </g>
    <g id="books-6" data-name="books" transform="translate(469.811 473.427)">
      <path id="Path_1576" data-name="Path 1576" d="M470.041,464.38l62.85,36.293v79.82l-62.872-36.3Z" transform="translate(-450.219 -464.38)" fill="#537abc"/>
      <path id="Path_1577" data-name="Path 1577" d="M469.04,464.985l1.061-.6,62.872,36.3-1.071.594Z" transform="translate(-450.278 -464.38)" fill="#6386c4"/>
      <path id="Path_1578" data-name="Path 1578" d="M469.04,464.95l63,36.463.933,79.056-62.872-36.3Z" transform="translate(-450.278 -464.345)" fill="#4871b6"/>
      <path id="Path_1579" data-name="Path 1579" d="M451.35,475.13l62.872,36.3v79.82l-62.872-36.3Z" transform="translate(-451.35 -463.729)" fill="#537abc"/>
      <path id="Path_1580" data-name="Path 1580" d="M452.35,474.57l62.872,36.293v79.82L452.35,554.39Z" transform="translate(-451.289 -463.763)" fill="#537abc"/>
      <path id="Path_1581" data-name="Path 1581" d="M451.35,475.164l1.061-.594,62.872,36.293-1.061.6Z" transform="translate(-451.35 -463.763)" fill="#6386c4"/>
      <path id="Path_1582" data-name="Path 1582" d="M510.63,510.012l19.8-11.412,1.061,81.114a35.541,35.541,0,0,1-9.1,6.077,100.676,100.676,0,0,1-11.666,4.041Z" transform="translate(-447.758 -462.307)" fill="#456bb2"/>
      <path id="Path_1583" data-name="Path 1583" d="M456.9,477.681a19.706,19.706,0,0,0,15.1-8.6l58.258,33.281L514.946,511.2Z" transform="translate(-451.014 -464.095)" fill="#fff"/>
      <path id="Path_1584" data-name="Path 1584" d="M509.4,509.307a68.4,68.4,0,0,0,19.653-11.5l1.453.838a65.42,65.42,0,0,1-8.485,6.035,66.489,66.489,0,0,1-11.338,5.377Z" transform="translate(-447.833 -462.355)" fill="#6386c4"/>
    </g>
    <ellipse id="Ellipse_24" data-name="Ellipse 24" cx="21.891" cy="7.806" rx="21.891" ry="7.806" transform="translate(316.556 778.176)" opacity="0.1"/>
    <path id="Path_1585" data-name="Path 1585" d="M339.287,753.246c-.308,1.135-.679,2.057-1.061,2.206-1.2.4-2.355,1.061-5.207-.933s-3.023-6.151-3.606-7.711a2.947,2.947,0,0,0-1.114-1.464,72.258,72.258,0,0,0-.976-9.683c-.806-3.086-3.351-18.178-3.351-18.178L315,708.839,326,705s4.38,4.921,5.3,7.1,1.888,27.109,2.662,30.28C334.377,744,337.209,748.781,339.287,753.246Z" transform="translate(10.2 23.626)" fill="#8a5d3b"/>
    <path id="Path_1586" data-name="Path 1586" d="M339.909,759.755c-3.776,1.888-9.439-3.648-12.176-11.55,0,0-.085-2.323-.244-5.165A2.949,2.949,0,0,1,328.6,744.5c.583,1.559.753,5.748,3.606,7.711s4.009,1.336,5.207.933c.435-.149.806-1.061,1.061-2.206C340.429,755.025,341.712,758.906,339.909,759.755Z" transform="translate(10.957 25.931)" fill="#224d94"/>
    <path id="Path_1587" data-name="Path 1587" d="M289.812,689.709s-1.75,6.8-.4,11.263,2.015,9.4,25.125,19.865c0,0-1.8-10.309,13.713-14.413,0,0-13.48-15.272-16.036-17.924Z" transform="translate(8.619 22.626)" fill="#2656a5"/>
    <path id="Path_1588" data-name="Path 1588" d="M332.84,760.154c-.233,1.251-1.75,1.718-1.75,1.718-7.032,2.323-9.673-11.157-9.673-11.157a38.443,38.443,0,0,0,0-6.82c-.382-2.121-3.7-10.775-4.412-13.491s-.488-9.259-.488-9.259L312.6,719.4a11.751,11.751,0,0,1,4.667-10.776s6.692,5.176,8.05,7.679,1.315,22.654,1.485,25.645S327.994,753.568,332.84,760.154Z" transform="translate(10.05 23.845)" fill="#a87c4f"/>
    <path id="Path_1589" data-name="Path 1589" d="M334.124,765.078c-9.641,1.411-11.221-7.732-11.221-7.732v3.977a1.114,1.114,0,0,1-1.411-.329c.212-1.527-1.3-6.968-1.262-9.259a7.584,7.584,0,0,1,.721-3.426s2.641,13.459,9.641,11.157c0,0,1.517-.467,1.75-1.718l.064.085C337.337,764.473,334.124,765.078,334.124,765.078Z" transform="translate(10.517 26.25)" fill="#224d94"/>
    <path id="Path_1590" data-name="Path 1590" d="M306.76,704.363,318,712.126a.382.382,0,0,0,.435,0l16.906-10.362a.4.4,0,0,0,0-.668L323.9,693a.4.4,0,0,0-.445,0L306.77,703.695a.4.4,0,0,0-.011.668Z" transform="translate(9.69 22.895)" fill="#7d7d7d"/>
    <path id="Path_1591" data-name="Path 1591" d="M301.641,641.965a3.829,3.829,0,0,0-4.762-1.952c-3.574.923-4.359,7.074-4.359,8.485,0,3.373,1.294,5.483,1.294,7.106a59.852,59.852,0,0,1-.732,6.024s3.7,1.145,6.639-.212S301.641,641.965,301.641,641.965Z" transform="translate(8.838 19.675)" fill="url(#radial-gradient)"/>
    <path id="Path_1592" data-name="Path 1592" d="M315.538,680.21s6.226,8.092,7.424,12.5c0,0,4,1.517,4.317,2.567a9.142,9.142,0,0,1,.233,2.577,6.725,6.725,0,0,1-2.535-.827,14.265,14.265,0,0,0-3.808-.552c0,.138.223,2.843-.329,2.9s-1.739-2.439-1.644-3.076a7.935,7.935,0,0,0-.138-2.949c-.276-.456-7.01-8.4-7.159-9.545a25.7,25.7,0,0,0-.7-2.948Z" transform="translate(9.97 22.124)" fill="#a87c4f"/>
    <path id="Path_1593" data-name="Path 1593" d="M309.679,658.106s3.6,1.145,4.582,6.554S317,680.9,317,680.9s-1.241,3.182-5.7,2.588c0,0-3.182-14.594-3.829-18.6S307.579,657.374,309.679,658.106Z" transform="translate(9.73 20.779)" fill="#ed6da8"/>
    <path id="Path_1594" data-name="Path 1594" d="M295.834,657.416s-7.785,4.242-8.251,8.05,2.991,19.4,2.312,26.186c0,0,13.724,8.941,22.4-1.209,0,0-1.156-8.835,0-11s4.327-3.935,2.715-9.036-3.447-11.263-4.136-12.207S302.929,655.221,295.834,657.416Z" transform="translate(8.536 20.683)" fill="#ee559d"/>
    <path id="Path_1595" data-name="Path 1595" d="M297.8,655.334a6.363,6.363,0,0,1-2.439,2.492s1.8,7.063,7.732,6.83-.742-15.166-.742-15.166Z" transform="translate(9.01 20.263)" fill="#a87c4f"/>
    <path id="Path_1596" data-name="Path 1596" d="M299.035,647.157l-1.654-2.439s.838-3.447,3.967-2.874l2.026,1.952A9.015,9.015,0,0,0,299.035,647.157Z" transform="translate(9.132 19.796)" fill="#ce4989"/>
    <path id="Path_1597" data-name="Path 1597" d="M313.539,651.689a9.025,9.025,0,0,1-.424,5.621c-.965,2.047-3.235,7.318-5.43,7.053s-6.565-2.238-6.565-5.091,1.485-8.729,1.983-8.771,7.424-.923,8.2-.35S313.539,651.689,313.539,651.689Z" transform="translate(9.359 20.291)" fill="#a87c4f"/>
    <path id="Path_1598" data-name="Path 1598" d="M302.26,657.589s1.167.933,3.691.371,3.436-2.853,5.08-3.553a10.847,10.847,0,0,1,2.98-.615c.668-.233.551-3.786-.276-5.3s-5.218-6.279-9.768-5.5-6.2,5.133-6.141,7.562-.117,5.239-.117,5.239a4.486,4.486,0,0,0,4.55,1.8Z" transform="translate(9.152 19.863)" fill="url(#linear-gradient)"/>
    <path id="Path_1599" data-name="Path 1599" d="M302.16,656.893s-.127-2.927-2.058-2.45.361,4.041,1.559,4.158Z" transform="translate(9.252 20.56)" fill="#8a5d3b"/>
    <path id="Path_1600" data-name="Path 1600" d="M291.85,685.946l-.286,3.553s3.627,1.983,16.291,11.338a34.24,34.24,0,0,0,5.3-.223c2-.339,6.629,1.167,6.777,1.655s-3.648-.191-3.648-.191,2.121,1.845,1.9,2.577-1.389,2.439-2.62,1.952-1.962-1.8-2.45-1.655a7.138,7.138,0,0,1-7.424-.149s-19.854-10.383-20.151-12.812-.339-7.9-.339-7.9S288.679,686.381,291.85,685.946Z" transform="translate(8.394 22.359)" fill="#a87c4f"/>
    <path id="Path_1601" data-name="Path 1601" d="M291.491,664.025c2.948,1.5,3.489,5.462,3.182,9.174s-2.429,14.456-2.429,14.456-5.738,1.3-7.6-1.994l2.248-18.719C287.27,663.495,289.657,663.081,291.491,664.025Z" transform="translate(8.36 21.117)" fill="#ed6da8"/>
    <path id="Path_1602" data-name="Path 1602" d="M317.66,712.614l7.615-16.545,18.083-9.959-8.686,16.079Z" transform="translate(10.361 22.481)" fill="#919190"/>
    <path id="Path_1603" data-name="Path 1603" d="M538.727,496.866l30.81-17.8c1.474-.848,2.842-.774,3.627.2l3.6,4.486c.817,1.061,2.238,1.061,3.754.223l87.5-50.516c1.665-.965,3.023-.191,3.033,1.729V537.009l-4.56,2.62V440.22L540.063,513.23v99.409l-3.945,2.28a.4.4,0,0,1-.594-.339l-.064-112.115a7.159,7.159,0,0,1,3.245-5.6Z" transform="translate(23.557 7.149)" fill="#d7a851"/>
    <path id="Path_1604" data-name="Path 1604" d="M538.21,511.33l126.443-73,.032,99.409L538.231,610.75l-.021-99.419Z" transform="translate(23.723 7.469)" fill="#d6d6d5"/>
    <path id="Path_1605" data-name="Path 1605" d="M538.99,512.011,665.444,439l.021,99.419L539.011,611.43l-.021-99.419Z" transform="translate(23.771 7.51)" fill="#eaeaea"/>
    <path id="Path_1606" data-name="Path 1606" d="M539.79,512.81l126.454-73,.021,99.409L539.822,612.23l-.032-99.419Z" transform="translate(23.819 7.559)" fill="#fff"/>
    <path id="Path_1607" data-name="Path 1607" d="M543.077,518.3l1.941-1.061,4.539-2.62,116.909-67.379L671,444.62l1.941-1.114c1.792-1.061,3.256-.191,3.256,1.856l-4.932,89.874a7.2,7.2,0,0,1-3.245,5.61L539.036,615.3c-1.782,1.061-3.245.191-3.256-1.856l4.062-89.535a7.2,7.2,0,0,1,3.182-5.61Z" transform="translate(23.576 7.755)" fill="#fdc561"/>
    <path id="Path_1608" data-name="Path 1608" d="M553.423,505.036l30.821-17.8c1.464-.848,2.832-.774,3.617.212l3.606,4.476c.806,1.061,2.227,1.061,3.755.223l87.488-50.516c1.676-.965,3.033-.191,3.033,1.729V545.179L681.2,547.8V448.39L554.759,521.4v99.409l-3.945,2.28a.4.4,0,0,1-.594-.339V510.636a7.148,7.148,0,0,1,3.182-5.6Z" transform="translate(24.451 7.644)" fill="#d7a851"/>
    <path id="Path_1609" data-name="Path 1609" d="M552.91,519.5l126.454-73,.021,99.409L552.931,618.92,552.91,519.5Z" transform="translate(24.614 7.964)" fill="#d6d6d5"/>
    <path id="Path_1610" data-name="Path 1610" d="M553.69,520.18l126.454-73,.021,99.409L553.711,619.6l-.021-99.419Z" transform="translate(24.661 8.005)" fill="#eaeaea"/>
    <path id="Path_1611" data-name="Path 1611" d="M554.5,520.991,680.954,447.98l.021,99.409L554.521,620.4l-.021-99.409Z" transform="translate(24.71 8.054)" fill="#fff"/>
    <path id="Path_1612" data-name="Path 1612" d="M557.787,526.468l1.941-1.061,4.529-2.62L681.218,455.43l4.539-2.63,1.941-1.114c1.782-1.061,3.256-.191,3.256,1.856l-4.942,89.874a7.18,7.18,0,0,1-3.182,5.611L553.746,623.469c-1.792,1.061-3.256.191-3.256-1.856l4.062-89.535a7.159,7.159,0,0,1,3.182-5.61Z" transform="translate(24.467 8.251)" fill="#fdc561"/>
    <path id="Path_1613" data-name="Path 1613" d="M564.863,511.566l30.821-17.8c1.464-.838,2.832-.764,3.617.212l3.6,4.486c.817,1.008,2.238,1.061,3.765.212l87.488-50.516c1.665-.965,3.033-.191,3.033,1.729V551.709l-4.539,2.62V454.909L566.2,527.93V627.35l-3.945,2.27a.392.392,0,0,1-.594-.339v-112.1a7.127,7.127,0,0,1,3.182-5.611Z" transform="translate(25.144 8.04)" fill="#d7a851"/>
    <path id="Path_1614" data-name="Path 1614" d="M564.35,526.041,690.8,453.03l.021,99.419-126.454,73-.021-99.409Z" transform="translate(25.307 8.36)" fill="#d6d6d5"/>
    <path id="Path_1615" data-name="Path 1615" d="M565.13,526.721,691.584,453.71l.021,99.419-126.454,73-.021-99.409Z" transform="translate(25.354 8.401)" fill="#eaeaea"/>
    <path id="Path_1616" data-name="Path 1616" d="M565.94,527.521,692.394,454.51l.021,99.419L565.961,626.94l-.021-99.419Z" transform="translate(25.403 8.449)" fill="#fff"/>
    <path id="Path_1617" data-name="Path 1617" d="M569.227,533.012l1.941-1.124,4.529-2.62L692.658,461.91l4.539-2.62,1.941-1.124c1.782-1.061,3.245-.191,3.256,1.867l-4.942,89.874a7.148,7.148,0,0,1-3.235,5.6L565.186,630c-1.792,1.061-3.256.2-3.256-1.856l4.062-89.524a7.127,7.127,0,0,1,3.182-5.61Z" transform="translate(25.161 8.643)" fill="#fdc561"/>
    <ellipse id="Ellipse_25" data-name="Ellipse 25" cx="25.03" cy="8.93" rx="25.03" ry="8.93" transform="translate(457.879 787.722)" opacity="0.1"/>
    <path id="Path_1618" data-name="Path 1618" d="M464.8,629.767c3.182.668,6.289.742,6.491,5.207s-.4,13.947-4.8,11.666-8.188-5.091-8.389-10.16S461.59,629.088,464.8,629.767Z" transform="translate(18.869 19.061)" fill="#c3996b"/>
    <path id="Path_1619" data-name="Path 1619" d="M465.111,652.131l2.683-9.089-8.209-2.482-2.015,11.571Z" transform="translate(18.838 19.722)" fill="#c3996b"/>
    <path id="Path_1620" data-name="Path 1620" d="M456.97,648.459c-1.273-1.061-5.653,3.341-7,6.035s-6.491,10.669-5.918,16.779,11.963,9.545,11.963,9.545l3.182-5.854Z" transform="translate(18.016 20.19)" fill="#c667a7"/>
    <path id="Path_1621" data-name="Path 1621" d="M475.312,772.181c-2.514-1.283-5.3-3.6-6.109-5.3l-1.061,5.144h-1.888l-1.283-7.424s-2.323-2.492,0-6.936h0s1.283-9.768-.265-15.421-3.733-12.483-1.252-17.786l-.509-7.965,8.729,4.37c-.074.255-.4,5.388-.488,5.9s-.456,28.042.064,30.439a36.6,36.6,0,0,0,3.182,7.042c1.411,2.545,2.927,4.836,3.755,5.207C479.9,770.2,477.825,773.454,475.312,772.181Z" transform="translate(19.126 24.322)" fill="#c3996b"/>
    <path id="Path_1622" data-name="Path 1622" d="M464.549,768.1c-3.659-.88-7.424-6.8-7.424-6.8l-.806,6.8h-1.3l-1.464-8.909a6.416,6.416,0,0,1,.223-6.289,189.153,189.153,0,0,0-.594-22.941,14.6,14.6,0,0,1,2.121-8.7v-6.618l7.965-.806s-.3,7.753-.732,10.744-3.256,29.909-3.256,29.909c.636,2.641,3.055,5.77,5.218,8.188,1.792,1.983,3.4,3.479,3.733,3.839C469.014,767.325,468.208,769.012,464.549,768.1Z" transform="translate(18.551 24.161)" fill="#c3996b"/>
    <path id="Path_1623" data-name="Path 1623" d="M464.549,765.871c-3.659-.88-7.424-6.8-7.424-6.8s-.679-1.421-3.574-2.121a6.417,6.417,0,0,1,.223-6.289,2.779,2.779,0,0,1,2.641.965c.954,1.3,4.03,8.092,6.459,8.559.509.1,1.061.17,1.623.223,1.792,1.983,3.4,3.479,3.733,3.839C469.014,765.1,468.208,766.784,464.549,765.871Z" transform="translate(18.551 26.39)" fill="#2c53a4"/>
    <path id="Path_1624" data-name="Path 1624" d="M457.124,758.741l-.806,6.8h-1.3l-1.464-8.909C456.445,757.319,457.124,758.741,457.124,758.741Z" transform="translate(18.594 26.754)" fill="#234180"/>
    <path id="Path_1625" data-name="Path 1625" d="M475.22,769.829c-2.514-1.283-5.3-3.6-6.109-5.3l-1.061,5.144h-1.888l-1.283-7.424s-2.323-2.492,0-6.936c1.061.233,2.8.742,3.479,2.036.88,1.7,2.418,5.038,4.539,5.038a2.61,2.61,0,0,0,1.421-.467c1.411,2.545,2.927,4.836,3.754,5.207C479.812,767.846,477.733,771.1,475.22,769.829Z" transform="translate(19.218 26.674)" fill="#2c53a4"/>
    <path id="Path_1626" data-name="Path 1626" d="M469.052,764.13l-1.061,5.144H466.1l-1.283-7.424a6.618,6.618,0,0,1,4.232,2.28Z" transform="translate(19.277 27.07)" fill="#234180"/>
    <path id="Path_1627" data-name="Path 1627" d="M451.144,677.68s-2.832,6.1-1.061,11.168,5.823,21.286,4.836,29.94c0,0,5.9,6.194,17.733,5.7,0,0,8.3-25.942-.764-40.005Z" transform="translate(18.349 21.971)" fill="#173660"/>
    <path id="Path_1628" data-name="Path 1628" d="M462.144,648.135c2.959,1.124,11.666,6.544,12.96,8.347s-1.061,9.217-1.93,13.151-1.814,15.071-1.411,16.694-8.8,2.927-14.477-1.188-6.226-5.611-6.226-5.611a137.646,137.646,0,0,1,.435-20.151C452.556,649.259,454.3,645.144,462.144,648.135Z" transform="translate(18.432 20.123)" fill="#b0519e"/>
    <path id="Path_1629" data-name="Path 1629" d="M475.968,663.086c-.445,2.248-3.6,13.363-2.821,17.86a53.183,53.183,0,0,0,1.75,6.236,17.4,17.4,0,0,1-6.363,1.973,21.955,21.955,0,0,1-1.771-7.626c-.318-8.485,1.283-18.189,2.694-21.466s3.129-4.561,4.974-3.6C476.053,657.338,476.424,660.838,475.968,663.086Z" transform="translate(19.392 20.666)" fill="#c667a7"/>
    <path id="Path_1630" data-name="Path 1630" d="M475.844,707.248c-2.121.074-2.609-1.538-2.121-4.5s1.061-3.4.265-5.526c-.573-1.432-3.574-5.038-5.557-9.853a17.4,17.4,0,0,0,6.363-1.973c1.676,5.07,3.882,10.935,3.967,12.282C478.887,699.675,478,707.248,475.844,707.248Z" transform="translate(19.496 22.438)" fill="#c3996b"/>
    <path id="Path_1631" data-name="Path 1631" d="M472.273,632.335a11.518,11.518,0,0,1-2.333,6.82c-1.548,1.92-3.479,8.994-2.121,11.794a17.213,17.213,0,0,1-3.468-7.9s.668,9.28-3.182,9.28-7.286-1.549-6.533-5.727,3.182-5.483,3.182-5.483-5.186-3.511-1.8-10.606S471.563,626.714,472.273,632.335Z" transform="translate(18.654 18.868)" fill="#52260f"/>
    <ellipse id="Ellipse_26" data-name="Ellipse 26" cx="25.062" cy="8.941" rx="25.062" ry="8.941" transform="translate(270.049 539.937)" opacity="0.1"/>
    <path id="Path_1632" data-name="Path 1632" d="M272.369,536.6a21.759,21.759,0,0,1,.18,2.63c0,3.861-3.108,3.33-3.108,3.33-6.873-2.577-4.083-14.848-3.754-16.11a9.544,9.544,0,0,1,1.93-2.715c-.658,3.553-1.559,10.086.18,12.621C269.145,538.313,270.98,537.623,272.369,536.6Z" transform="translate(7.162 12.644)" fill="#61111f"/>
    <path id="Path_1633" data-name="Path 1633" d="M304.516,521.069a23.413,23.413,0,0,1-5.738-.456c-.594-4.942-2.609-14.286-2.938-16.5s1.644-9.545,1-13-1.729-15.251-1.729-15.251-7.085,19.653-8.315,23.842c-.859,2.948-7.191,16.439-11.316,25.263a36.606,36.606,0,0,1-5.377-2.185c1.061-3.712,1.655-10.415,2.673-13.841a68.937,68.937,0,0,1,5.154-11.91c.753-.976,0-6.883.488-13.321s4.348-25.454,4.348-25.454l22.548,1.262s.647,32.677.764,36.219C306.149,498.457,304.262,512.69,304.516,521.069Z" transform="translate(7.48 8.676)" fill="#66121d"/>
    <path id="Path_1634" data-name="Path 1634" d="M314.61,530.268c-2.259,1.294-7.2-.318-9.545-.965s-6.618,1.612-8.548-.318c-.923-.933-.689-2.535-.233-4.476a11.56,11.56,0,0,0,7.626-1.729C306.549,526.98,316.837,529,314.61,530.268Z" transform="translate(9.042 12.586)" fill="#61111f"/>
    <path id="Path_1635" data-name="Path 1635" d="M303.926,523.127a11.561,11.561,0,0,1-7.626,1.729,22.121,22.121,0,0,0,.986-6.915,4.56,4.56,0,0,0-.1-.891,23.416,23.416,0,0,0,5.738.456,13.512,13.512,0,0,0,.912,5.483Z" transform="translate(9.067 12.238)" fill="#603813"/>
    <path id="Path_1636" data-name="Path 1636" d="M272.259,536.887c-1.389,1.061-3.182,1.708-4.571-.244-1.739-2.535-.838-9.068-.18-12.621a15.912,15.912,0,0,0,2.259-3.4,10.866,10.866,0,0,0,.541-1.527,36.6,36.6,0,0,0,5.377,2.185c-1.729,3.7-3.076,6.586-3.458,7.5C271.262,531.181,271.9,533.959,272.259,536.887Z" transform="translate(7.272 12.362)" fill="#603813"/>
    <path id="Path_1637" data-name="Path 1637" d="M295.6,414.917c1.814-.923,5.42-.8,4.677-7.583s-8.347-5.738-10.606-5.409c0,0-7.657,1.464-8.4,9.121s-.255,13.469,3.67,20.883Z" transform="translate(8.138 5.248)" fill="url(#radial-gradient-2)"/>
    <path id="Path_1638" data-name="Path 1638" d="M307,474.822s-7.265,3.744-6.82-14.074l-4.645.074s-2.651,13.554-5.038,13.554-11.667-2.694-12.557-1.951c0,0,3.892-11.157,4.041-15.05s-5.017-23.9-2.842-26.292a35.3,35.3,0,0,1,7.424-5.43,15.476,15.476,0,0,1,2.747-1.3c.732-.233,1.9-.551,3.182-.87,2.471-.615,5.4-1.2,6.533-.976,1.729.339,5.3,8.357,5.929,10.606s1.2,8.983.52,11.666S304.974,468.235,307,474.822Z" transform="translate(7.955 6.507)" fill="#843c96"/>
    <path id="Path_1639" data-name="Path 1639" d="M332.832,444.411c0,1.145-1.145,6.83-9.545,4.465a51.442,51.442,0,0,0-8.92-1.665c-.785-2.036.159-4.571.445-5.483a43.4,43.4,0,0,0,8.485,1.061c2.45-.265,4.38-2.811,5.165-2.365s-1.485,3.065-1.485,3.065S332.832,443.276,332.832,444.411Z" transform="translate(10.143 7.593)" fill="#603813"/>
    <path id="Path_1640" data-name="Path 1640" d="M315.56,448.271c-1.782-.18-3.288-.3-4.635-.541a11.784,11.784,0,0,1-2.821-.859c-3.68-1.718-11.9-15.75-13.045-17.584a7.074,7.074,0,0,1-.52-4.56c1.485-1.58,4.55-3.235,6.215,0s8.23,16.11,9.98,16.81c.233.085.6.2,1.061.329,1.061.276,2.556.6,4.242.923C315.719,443.7,314.775,446.235,315.56,448.271Z" transform="translate(8.95 6.532)" fill="#b81f35"/>
    <path id="Path_1641" data-name="Path 1641" d="M315.069,441.729c-.286.912-1.23,3.447-.445,5.483.414,1.061-4.7.35-4.635-.318v-.223c-.074-.955-.615-3.712.88-5.865a3.386,3.386,0,0,1,.339-.456s3.924.721,3.935,1.061a1.306,1.306,0,0,1-.074.318Z" transform="translate(9.887 7.592)" fill="#edeced"/>
    <path id="Path_1642" data-name="Path 1642" d="M295.535,460.639s-2.651,13.554-5.038,13.554-11.667-2.694-12.557-1.951c0,0,3.892-11.157,4.041-15.05s-5.017-23.895-2.842-26.292a35.3,35.3,0,0,1,7.424-5.43C298.017,435.206,295.535,460.639,295.535,460.639Z" transform="translate(7.955 6.69)" fill="#911929"/>
    <path id="Path_1643" data-name="Path 1643" d="M306.168,474.822s-7.265,3.744-6.82-14.074c0,0,1.7-9.991,0-17.881-1.548-7.223-3.415-15.283-7.668-19.388,2.471-.615,5.4-1.2,6.533-.976,1.729.339,5.3,8.357,5.929,10.606s1.2,8.983.52,11.666S304.142,468.235,306.168,474.822Z" transform="translate(8.787 6.507)" fill="#911929"/>
    <path id="Path_1644" data-name="Path 1644" d="M290.887,405.05c5.483.392,7.424,1.485,7.679,5.61s.339,12.727-3.839,13.639-10.256-5.621-10.256-9.63S287.4,404.8,290.887,405.05Z" transform="translate(8.35 5.452)" fill="#603813"/>
    <path id="Path_1645" data-name="Path 1645" d="M287.363,417.9l-1.283,8.029a4.677,4.677,0,0,0,5.377,1.485l2.683-7.806Z" transform="translate(8.448 6.231)" fill="#603813"/>
    <path id="Path_1646" data-name="Path 1646" d="M298.28,408.57c-.721,1.506-2.121,4.751-4.773,6.268s-6.544,7.127-6.544,7.127-6.6-4-3.362-10.85,6.979-8.485,8.782-8.092S299.319,406.4,298.28,408.57Z" transform="translate(8.243 5.327)" fill="url(#radial-gradient-3)"/>
    <path id="Path_1647" data-name="Path 1647" d="M312.137,462.066c-.552,1.665-1.167,2.63-2.62,2.121s-4.709-4.009-6.088-4.009c-.615,0-5.08-.117-10.065-.552-.541-2.418,1.623-4.656,1.368-5.186a59.1,59.1,0,0,0,8.485,1.453c2.429,0,3.182-1.061,4.985.074S312.689,460.411,312.137,462.066Z" transform="translate(8.884 8.445)" fill="#603813"/>
    <path id="Path_1648" data-name="Path 1648" d="M294.35,461.121c-1.909-.17-3.9-.382-5.78-.647-4.242-.6-7.986-1.5-8.92-2.811-2.418-3.383-2.694-17.563-2.63-21.021s1.6-7.127,4.911-6.438c2.121.435,3.67,3.744,3.394,6.438s-1.061,14.445,1.061,16.248a14.921,14.921,0,0,0,4.348,1.771c1.517.446,3.235.88,4.942,1.273C295.973,456.507,293.81,458.7,294.35,461.121Z" transform="translate(7.898 6.972)" fill="#b81f35"/>
    <path id="Path_1649" data-name="Path 1649" d="M293.69,459.735a18.413,18.413,0,0,1-5.77-.318s0-.117,0-.329c0-1.061.074-4.242,2.206-5.812a3.192,3.192,0,0,1,.446-.286s4.242,1.061,4.5,1.548h0C295.312,455.122,293.149,457.317,293.69,459.735Z" transform="translate(8.559 8.357)" fill="#edeced"/>
    <ellipse id="Ellipse_27" data-name="Ellipse 27" cx="25.062" cy="8.941" rx="25.062" ry="8.941" transform="translate(866.863 554.796)" opacity="0.1"/>
    <path id="Path_1650" data-name="Path 1650" d="M849.476,534.66l.742,4.614s0,2.057-5.674,2.514a11.668,11.668,0,0,0-2.9.891c-.806.509-5.144,1.708-6.364.286s2.015-3.076,2.927-3.373,6.13-2.948,6.13-4.656Z" transform="translate(41.706 13.305)" fill="#3d3d3d"/>
    <path id="Path_1651" data-name="Path 1651" d="M837.728,476.9c-1.8,1.792-3.086,11.666.933,35.837s5.3,26.345,5.3,26.345,3.6.944,5.907-.849c0,0,.509-16.683-1.453-24.043,0,0,1.739-26.09,1.517-32.762Z" transform="translate(41.766 9.806)" fill="#223066"/>
    <path id="Path_1652" data-name="Path 1652" d="M863.226,544.023c.339,1.718,1.061,3.945.223,6.13a33.244,33.244,0,0,0-2.121,6.364,4.9,4.9,0,0,1-5.929,4.327c-4.062-.573-2.121-4.635-.647-7.774a27,27,0,0,0,2.121-9.45Z" transform="translate(42.794 13.848)" fill="#3d3d3d"/>
    <path id="Path_1653" data-name="Path 1653" d="M859.241,479.33c1.06-.339,4.083,10.669,3.383,33.833,0,0,2.641,10,2.121,13.586s-.721,18.338,0,21.721c0,0-3.182,2.991-7.541,0,0,0-5.186-25.1-6.777-29.993s-9.46-29.7-7.52-38.351C842.95,480.126,854.691,480.815,859.241,479.33Z" transform="translate(42.166 9.953)" fill="#223066"/>
    <path id="Path_1654" data-name="Path 1654" d="M856.014,440.552l3.892,1.9s1.994,2.683,9.089,5.621c0,0,2.874,2.609-.742,8.9a75.711,75.711,0,0,0-7.753,19.388c-1.061,4.953,1.347,5.886,0,7.223s-20.268,5.961-24.68-5.144a8.931,8.931,0,0,1,1.061-3.617c1.008-1.8.2-31.457,4.953-35.922a26.908,26.908,0,0,1,14.18,1.655Z" transform="translate(41.755 7.485)" fill="#fff"/>
    <path id="Path_1655" data-name="Path 1655" d="M867.385,447.541c2.588,1.315,10.553,11.783,11,14.053a42.216,42.216,0,0,1,1.7-10.786s2.121,1.7,4.115,1.326c0,0,1.708,16.662-4.242,17.913s-16.269-10.468-17.4-14.572C861.658,452.069,864.818,446.247,867.385,447.541Z" transform="translate(43.365 8.016)" fill="#fff"/>
    <path id="Path_1656" data-name="Path 1656" d="M843.212,438.975c-2.683.382-17.468,9.418-17.468,9.418a67.283,67.283,0,0,0-8.485-11.083,4.826,4.826,0,0,1-4.02,2.8s5.3,16.036,10.871,15.972,18.03-3.553,19.706-8.145S844.8,438.742,843.212,438.975Z" transform="translate(40.387 7.407)" fill="#fff"/>
    <path id="Path_1657" data-name="Path 1657" d="M817.566,437.934s.233-4.094-.488-5.515-2.365-3.553-3-3.182.6,3.32.6,3.32a14.6,14.6,0,0,1-2.121-2.63c-.286-.774-1.2-3.182-2.121-2.9s-3.458,4.3-2.6,6.586,3.754,6.607,5.642,7.085a4.306,4.306,0,0,0,4.083-2.768Z" transform="translate(40.049 6.783)" fill="#8a5d3b"/>
    <path id="Path_1658" data-name="Path 1658" d="M879.825,446.575s1.283,10.065,5.207,15.909c0,0,11.836-3.055,17.606-2.121,0,0-5.77-11.285-5.3-15.071s3.182-14.318,3.182-14.318-11.592-4.508-19.419-2.217C881.108,428.736,877.926,437.539,879.825,446.575Z" transform="translate(44.384 6.85)" fill="#f2f2f2"/>
    <path id="Path_1659" data-name="Path 1659" d="M856.239,425.012c-6.586-.986-9.259,1.633-9.842,2.853s-.467,12,1.718,13.109c0,0,9.832,1.92,10.945-6.47S856.239,425.012,856.239,425.012Z" transform="translate(42.377 6.649)" fill="#8a5d3b"/>
    <path id="Path_1660" data-name="Path 1660" d="M858.235,435.641a6.024,6.024,0,0,1-2.418-5.006s-7.424.5-10.8-3.818c0,0,6.279-7.064,13.968-2.768s1.591,15.389-.318,14.615Z" transform="translate(42.312 6.52)" fill="url(#radial-gradient-4)"/>
    <path id="Path_1661" data-name="Path 1661" d="M858.693,440.837l-.18-2.853-.127-4.094-10.776,1.761s2.779,6.491,2.259,8.485C849.869,444.178,854.271,445.938,858.693,440.837Z" transform="translate(42.469 7.2)" fill="#8a5d3b"/>
    <path id="Path_1662" data-name="Path 1662" d="M858.464,440.44a2.588,2.588,0,0,1,1.061,2.27s-3.436,4.55-7.01,5.25c0,0-.064-2.726-1.114-3.892a14.953,14.953,0,0,0,7.064-3.627Z" transform="translate(42.699 7.597)" fill="#f4f5f5"/>
    <path id="Path_1663" data-name="Path 1663" d="M849.862,443.748s-1.718.9-2.036,2.047c0,0-.753-3.4,1.771-4.8A7.922,7.922,0,0,1,849.862,443.748Z" transform="translate(42.476 7.63)" fill="#f4f5f5"/>
    <path id="Path_1664" data-name="Path 1664" d="M851.636,443.876l-1.792-.286a3.8,3.8,0,0,0-1.814,1.559l.3,1.718,2.376.689,1.962-.8a5.409,5.409,0,0,0-1.029-2.885Z" transform="translate(42.495 7.788)" fill="#ba202a"/>
    <path id="Path_1665" data-name="Path 1665" d="M851,447.368a71.576,71.576,0,0,0-3.574,26.875l-2.312,2.344-2.047-3.373s2.535-17.807,5.536-26.515Z" transform="translate(42.194 7.976)" fill="#c9202c"/>
    <path id="Path_1666" data-name="Path 1666" d="M856.57,434.767s1.952-2.874,3.521-.721c1.061,1.453-1.845,3.914-4.041,3.458Z" transform="translate(42.98 7.161)" fill="#a87c4f"/>
    <path id="Path_1667" data-name="Path 1667" d="M879.112,451.117s-1.188-4.571-.541-5.706,4.168-3.882,5.176-2.991-2.259,3.118-2.344,3.68-.191,6.151-.191,6.151a3.331,3.331,0,0,1-2.1-1.135Z" transform="translate(44.333 7.706)" fill="#8a5d3b"/>
    <path id="Path_1668" data-name="Path 1668" d="M938.383,627.961A133.952,133.952,0,0,0,709.72,722.65c0,36.124,11.115,74.093,34.745,111.786,21.922,35,54.631,69.755,99.239,102.633,34.755-24.075,69.055-61.514,94.254-101.742,23.948-38.181,39.655-78.844,39.655-112.677a133.56,133.56,0,0,0-39.242-94.721Z" transform="translate(34.115 16.582)" fill="#fff" fill-rule="evenodd"/>
    <path id="Path_1669" data-name="Path 1669" d="M917.287,812.047a1.93,1.93,0,0,1,3.267,2.047,344.334,344.334,0,0,1-38.839,50.622,276.758,276.758,0,0,1-44.492,39.242,1.933,1.933,0,0,1-2.2-3.182,272.839,272.839,0,0,0,43.855-38.7A340.273,340.273,0,0,0,917.287,812.047Z" transform="translate(41.656 30.062)" fill-rule="evenodd" fill="url(#linear-gradient-2)"/>
    <path id="Path_1670" data-name="Path 1670" d="M842.829,606.93a1.941,1.941,0,1,1,0,3.871A115.6,115.6,0,0,0,727.161,726.48a1.941,1.941,0,1,1-3.871,0A119.465,119.465,0,0,1,842.829,606.93Z" transform="translate(34.937 17.684)" fill-rule="evenodd" fill="url(#linear-gradient-3)"/>
    <path id="Path_1671" data-name="Path 1671" d="M839.919,652.34a68.652,68.652,0,1,1-48.532,20.151,68.651,68.651,0,0,1,48.532-20.151Z" transform="translate(37.847 20.435)" fill-rule="evenodd" fill="url(#linear-gradient-4)"/>
  </g>
</svg>
