<svg xmlns="http://www.w3.org/2000/svg" width="108.065" height="132" viewBox="0 0 108.065 132">
  <g id="multiple_files-40" data-name="multiple files-40" transform="translate(-53.36 -18.52)">
    <path id="Path_1309" data-name="Path 1309" d="M86.757,18.52h53.369c3.854,1.246,5.985,3.706,5.985,7.936q-.042,50.58,0,101.165a10.006,10.006,0,0,1-.2,2.316c-.857,3.59-3.706,5.647-7.727,5.652H61.611c-5.36,0-8.246-2.9-8.251-8.3V53.446c0-.463.042-.927.065-1.487H55.2c6.745,0,13.49.037,20.236,0A14.1,14.1,0,0,0,79,51.574a10.1,10.1,0,0,0,7.76-10.238C86.79,33.729,86.762,26.122,86.757,18.52Zm14.482,67.8H77.909c-.774,0-1.547-.023-2.316,0a3.6,3.6,0,0,0-3.2,2.571A3.243,3.243,0,0,0,74,92.592a5.837,5.837,0,0,0,2.576.574q24.623.056,49.237.023a7.694,7.694,0,0,0,1.533-.116,3.424,3.424,0,0,0,2.78-3.651,3.485,3.485,0,0,0-3.734-3.141q-12.592.023-25.156.032Zm-.139-11.8h25.776a3.322,3.322,0,0,0,3.03-2.233,3.173,3.173,0,0,0-.681-3.475,4.223,4.223,0,0,0-3.414-1.163H76.584a8.451,8.451,0,0,0-1.39.088,3.363,3.363,0,0,0-2.289,5.216,3.654,3.654,0,0,0,3.326,1.561Q88.664,74.493,101.1,74.511ZM88.564,110.8c4.123,0,8.246.023,12.365,0a3.451,3.451,0,0,0,3.646-4.086c-.292-1.719-1.788-2.821-3.9-2.826H76.357c-2.446,0-4.068,1.432-4.035,3.521s1.631,3.391,4.03,3.4Q82.449,110.818,88.564,110.8Z" transform="translate(0 0)" fill="#B0B7BD"/>
    <path id="Path_1310" data-name="Path 1310" d="M86.39,157h69.44c4.948,0,8.682-2.034,10.993-6.486a12.716,12.716,0,0,0,1.163-6.023V50.976c5.064-.727,8.455.046,10.354,3.919a9,9,0,0,1,.774,3.859q.065,50.52.023,101.044c0,5.059-3,8.005-8.029,8.01h-76.7c-5.05,0-7.991-2.951-8.015-8C86.39,158.918,86.39,158.024,86.39,157Z" transform="translate(-17.728 -17.288)" fill="#fff"/>
    <path id="Path_1311" data-name="Path 1311" d="M82.764,32v9.265c0,4.035-2.409,6.629-6.4,6.676-6.435.079-12.879.028-19.318,0a3.132,3.132,0,0,1-2.261-5.55l22.4-22.4A3.128,3.128,0,0,1,82.745,22.3C82.741,25.561,82.764,28.781,82.764,32Z" transform="translate(-0.134 -0.143)" fill="#fff"/>
  </g>
</svg>
